<mxfile host="app.diagrams.net" modified="2022-04-02T20:13:00.329Z" agent="5.0 (X11; Linux x86_64) AppleWebKit/537.36 (KHTML, like Gecko) Chrome/100.0.4896.60 Safari/537.36" etag="wOKWqPsWUURohhsOLLFy" version="17.4.0" type="github">
  <diagram id="UMLEgDB-gUR4VqfT6jYj" name="Page-1">
    <mxGraphModel dx="868" dy="424" grid="1" gridSize="10" guides="1" tooltips="1" connect="1" arrows="1" fold="1" page="1" pageScale="1" pageWidth="827" pageHeight="1169" math="0" shadow="0">
      <root>
        <mxCell id="0" />
        <mxCell id="1" parent="0" />
        <mxCell id="b-HjsPW8PfskxGSnB1fF-42" value="one - hot vector" style="rounded=1;whiteSpace=wrap;html=1;fillColor=#d5e8d4;strokeColor=#82b366;" vertex="1" parent="1">
          <mxGeometry x="20" y="360" width="127" height="30" as="geometry" />
        </mxCell>
        <mxCell id="b-HjsPW8PfskxGSnB1fF-43" value="embedding layer" style="rounded=1;whiteSpace=wrap;html=1;fillColor=#fff2cc;strokeColor=#d6b656;" vertex="1" parent="1">
          <mxGeometry x="20" y="320" width="130" height="30" as="geometry" />
        </mxCell>
        <mxCell id="b-HjsPW8PfskxGSnB1fF-44" value="RNN layer 1" style="rounded=1;whiteSpace=wrap;html=1;fillColor=#dae8fc;strokeColor=#6c8ebf;" vertex="1" parent="1">
          <mxGeometry x="20" y="280" width="130" height="30" as="geometry" />
        </mxCell>
        <mxCell id="b-HjsPW8PfskxGSnB1fF-45" value="RNN layer 2&lt;span style=&quot;color: rgba(0 , 0 , 0 , 0) ; font-family: monospace ; font-size: 0px&quot;&gt;%3CmxGraphModel%3E%3Croot%3E%3CmxCell%20id%3D%220%22%2F%3E%3CmxCell%20id%3D%221%22%20parent%3D%220%22%2F%3E%3CmxCell%20id%3D%222%22%20value%3D%22one%20-%20hot%20vector%22%20style%3D%22rounded%3D1%3BwhiteSpace%3Dwrap%3Bhtml%3D1%3B%22%20vertex%3D%221%22%20parent%3D%221%22%3E%3CmxGeometry%20x%3D%2210%22%20y%3D%22330%22%20width%3D%22300%22%20height%3D%2230%22%20as%3D%22geometry%22%2F%3E%3C%2FmxCell%3E%3C%2Froot%3E%3C%2FmxGraphModel%3E&lt;/span&gt;" style="rounded=1;whiteSpace=wrap;html=1;fillColor=#dae8fc;strokeColor=#6c8ebf;" vertex="1" parent="1">
          <mxGeometry x="20" y="240" width="130" height="30" as="geometry" />
        </mxCell>
        <mxCell id="b-HjsPW8PfskxGSnB1fF-47" value="word 1" style="rounded=1;whiteSpace=wrap;html=1;fillColor=#d5e8d4;strokeColor=#82b366;" vertex="1" parent="1">
          <mxGeometry x="54" y="410" width="60" height="30" as="geometry" />
        </mxCell>
        <mxCell id="b-HjsPW8PfskxGSnB1fF-48" value="" style="endArrow=classic;html=1;rounded=0;exitX=0.5;exitY=0;exitDx=0;exitDy=0;entryX=0.5;entryY=1;entryDx=0;entryDy=0;" edge="1" parent="1" source="b-HjsPW8PfskxGSnB1fF-47" target="b-HjsPW8PfskxGSnB1fF-42">
          <mxGeometry width="50" height="50" relative="1" as="geometry">
            <mxPoint x="-110" y="380" as="sourcePoint" />
            <mxPoint x="-60" y="330" as="targetPoint" />
          </mxGeometry>
        </mxCell>
        <mxCell id="b-HjsPW8PfskxGSnB1fF-49" value="" style="endArrow=classic;html=1;rounded=0;exitX=0.5;exitY=0;exitDx=0;exitDy=0;entryX=0.5;entryY=1;entryDx=0;entryDy=0;" edge="1" parent="1" source="b-HjsPW8PfskxGSnB1fF-42" target="b-HjsPW8PfskxGSnB1fF-43">
          <mxGeometry width="50" height="50" relative="1" as="geometry">
            <mxPoint x="-110" y="380" as="sourcePoint" />
            <mxPoint x="-60" y="330" as="targetPoint" />
          </mxGeometry>
        </mxCell>
        <mxCell id="b-HjsPW8PfskxGSnB1fF-50" value="" style="endArrow=classic;html=1;rounded=0;exitX=0.5;exitY=0;exitDx=0;exitDy=0;entryX=0.5;entryY=1;entryDx=0;entryDy=0;" edge="1" parent="1" source="b-HjsPW8PfskxGSnB1fF-43" target="b-HjsPW8PfskxGSnB1fF-44">
          <mxGeometry width="50" height="50" relative="1" as="geometry">
            <mxPoint x="-110" y="380" as="sourcePoint" />
            <mxPoint x="-60" y="330" as="targetPoint" />
          </mxGeometry>
        </mxCell>
        <mxCell id="b-HjsPW8PfskxGSnB1fF-51" value="" style="endArrow=classic;html=1;rounded=0;exitX=0.5;exitY=0;exitDx=0;exitDy=0;entryX=0.5;entryY=1;entryDx=0;entryDy=0;" edge="1" parent="1" source="b-HjsPW8PfskxGSnB1fF-44" target="b-HjsPW8PfskxGSnB1fF-45">
          <mxGeometry width="50" height="50" relative="1" as="geometry">
            <mxPoint x="-110" y="380" as="sourcePoint" />
            <mxPoint x="-60" y="330" as="targetPoint" />
          </mxGeometry>
        </mxCell>
        <mxCell id="b-HjsPW8PfskxGSnB1fF-54" value="one - hot vector" style="rounded=1;whiteSpace=wrap;html=1;fillColor=#d5e8d4;strokeColor=#82b366;" vertex="1" parent="1">
          <mxGeometry x="570" y="360" width="127" height="30" as="geometry" />
        </mxCell>
        <mxCell id="b-HjsPW8PfskxGSnB1fF-55" value="embedding layer" style="rounded=1;whiteSpace=wrap;html=1;fillColor=#fff2cc;strokeColor=#d6b656;" vertex="1" parent="1">
          <mxGeometry x="570" y="320" width="130" height="30" as="geometry" />
        </mxCell>
        <mxCell id="b-HjsPW8PfskxGSnB1fF-56" value="RNN layer 1" style="rounded=1;whiteSpace=wrap;html=1;fillColor=#dae8fc;strokeColor=#6c8ebf;" vertex="1" parent="1">
          <mxGeometry x="570" y="280" width="130" height="30" as="geometry" />
        </mxCell>
        <mxCell id="b-HjsPW8PfskxGSnB1fF-57" value="RNN layer 2&lt;span style=&quot;color: rgba(0 , 0 , 0 , 0) ; font-family: monospace ; font-size: 0px&quot;&gt;%3CmxGraphModel%3E%3Croot%3E%3CmxCell%20id%3D%220%22%2F%3E%3CmxCell%20id%3D%221%22%20parent%3D%220%22%2F%3E%3CmxCell%20id%3D%222%22%20value%3D%22one%20-%20hot%20vector%22%20style%3D%22rounded%3D1%3BwhiteSpace%3Dwrap%3Bhtml%3D1%3B%22%20vertex%3D%221%22%20parent%3D%221%22%3E%3CmxGeometry%20x%3D%2210%22%20y%3D%22330%22%20width%3D%22300%22%20height%3D%2230%22%20as%3D%22geometry%22%2F%3E%3C%2FmxCell%3E%3C%2Froot%3E%3C%2FmxGraphModel%3E&lt;/span&gt;" style="rounded=1;whiteSpace=wrap;html=1;fillColor=#dae8fc;strokeColor=#6c8ebf;" vertex="1" parent="1">
          <mxGeometry x="570" y="240" width="130" height="30" as="geometry" />
        </mxCell>
        <mxCell id="b-HjsPW8PfskxGSnB1fF-58" value="Fully Connected layer" style="rounded=1;whiteSpace=wrap;html=1;fillColor=#647687;fontColor=#ffffff;strokeColor=#314354;" vertex="1" parent="1">
          <mxGeometry x="570" y="200" width="130" height="30" as="geometry" />
        </mxCell>
        <mxCell id="b-HjsPW8PfskxGSnB1fF-59" value="word n" style="rounded=1;whiteSpace=wrap;html=1;fillColor=#d5e8d4;strokeColor=#82b366;" vertex="1" parent="1">
          <mxGeometry x="604" y="410" width="60" height="30" as="geometry" />
        </mxCell>
        <mxCell id="b-HjsPW8PfskxGSnB1fF-60" value="" style="endArrow=classic;html=1;rounded=0;exitX=0.5;exitY=0;exitDx=0;exitDy=0;entryX=0.5;entryY=1;entryDx=0;entryDy=0;" edge="1" parent="1" source="b-HjsPW8PfskxGSnB1fF-59" target="b-HjsPW8PfskxGSnB1fF-54">
          <mxGeometry width="50" height="50" relative="1" as="geometry">
            <mxPoint x="440" y="380" as="sourcePoint" />
            <mxPoint x="490" y="330" as="targetPoint" />
          </mxGeometry>
        </mxCell>
        <mxCell id="b-HjsPW8PfskxGSnB1fF-61" value="" style="endArrow=classic;html=1;rounded=0;exitX=0.5;exitY=0;exitDx=0;exitDy=0;entryX=0.5;entryY=1;entryDx=0;entryDy=0;" edge="1" parent="1" source="b-HjsPW8PfskxGSnB1fF-54" target="b-HjsPW8PfskxGSnB1fF-55">
          <mxGeometry width="50" height="50" relative="1" as="geometry">
            <mxPoint x="440" y="380" as="sourcePoint" />
            <mxPoint x="490" y="330" as="targetPoint" />
          </mxGeometry>
        </mxCell>
        <mxCell id="b-HjsPW8PfskxGSnB1fF-62" value="" style="endArrow=classic;html=1;rounded=0;exitX=0.5;exitY=0;exitDx=0;exitDy=0;entryX=0.5;entryY=1;entryDx=0;entryDy=0;" edge="1" parent="1" source="b-HjsPW8PfskxGSnB1fF-55" target="b-HjsPW8PfskxGSnB1fF-56">
          <mxGeometry width="50" height="50" relative="1" as="geometry">
            <mxPoint x="440" y="380" as="sourcePoint" />
            <mxPoint x="490" y="330" as="targetPoint" />
          </mxGeometry>
        </mxCell>
        <mxCell id="b-HjsPW8PfskxGSnB1fF-63" value="" style="endArrow=classic;html=1;rounded=0;exitX=0.5;exitY=0;exitDx=0;exitDy=0;entryX=0.5;entryY=1;entryDx=0;entryDy=0;" edge="1" parent="1" source="b-HjsPW8PfskxGSnB1fF-56" target="b-HjsPW8PfskxGSnB1fF-57">
          <mxGeometry width="50" height="50" relative="1" as="geometry">
            <mxPoint x="440" y="380" as="sourcePoint" />
            <mxPoint x="490" y="330" as="targetPoint" />
          </mxGeometry>
        </mxCell>
        <mxCell id="b-HjsPW8PfskxGSnB1fF-64" value="" style="endArrow=classic;html=1;rounded=0;exitX=0.5;exitY=0;exitDx=0;exitDy=0;entryX=0.5;entryY=1;entryDx=0;entryDy=0;entryPerimeter=0;" edge="1" parent="1" source="b-HjsPW8PfskxGSnB1fF-57" target="b-HjsPW8PfskxGSnB1fF-58">
          <mxGeometry width="50" height="50" relative="1" as="geometry">
            <mxPoint x="440" y="380" as="sourcePoint" />
            <mxPoint x="490" y="330" as="targetPoint" />
          </mxGeometry>
        </mxCell>
        <mxCell id="b-HjsPW8PfskxGSnB1fF-65" value="one - hot vector" style="rounded=1;whiteSpace=wrap;html=1;fillColor=#d5e8d4;strokeColor=#82b366;" vertex="1" parent="1">
          <mxGeometry x="170" y="360" width="127" height="30" as="geometry" />
        </mxCell>
        <mxCell id="b-HjsPW8PfskxGSnB1fF-66" value="embedding layer" style="rounded=1;whiteSpace=wrap;html=1;fillColor=#fff2cc;strokeColor=#d6b656;" vertex="1" parent="1">
          <mxGeometry x="170" y="320" width="130" height="30" as="geometry" />
        </mxCell>
        <mxCell id="b-HjsPW8PfskxGSnB1fF-67" value="RNN layer 1" style="rounded=1;whiteSpace=wrap;html=1;fillColor=#dae8fc;strokeColor=#6c8ebf;" vertex="1" parent="1">
          <mxGeometry x="170" y="280" width="130" height="30" as="geometry" />
        </mxCell>
        <mxCell id="b-HjsPW8PfskxGSnB1fF-68" value="RNN layer 2&lt;span style=&quot;color: rgba(0 , 0 , 0 , 0) ; font-family: monospace ; font-size: 0px&quot;&gt;%3CmxGraphModel%3E%3Croot%3E%3CmxCell%20id%3D%220%22%2F%3E%3CmxCell%20id%3D%221%22%20parent%3D%220%22%2F%3E%3CmxCell%20id%3D%222%22%20value%3D%22one%20-%20hot%20vector%22%20style%3D%22rounded%3D1%3BwhiteSpace%3Dwrap%3Bhtml%3D1%3B%22%20vertex%3D%221%22%20parent%3D%221%22%3E%3CmxGeometry%20x%3D%2210%22%20y%3D%22330%22%20width%3D%22300%22%20height%3D%2230%22%20as%3D%22geometry%22%2F%3E%3C%2FmxCell%3E%3C%2Froot%3E%3C%2FmxGraphModel%3E&lt;/span&gt;" style="rounded=1;whiteSpace=wrap;html=1;fillColor=#dae8fc;strokeColor=#6c8ebf;" vertex="1" parent="1">
          <mxGeometry x="170" y="240" width="130" height="30" as="geometry" />
        </mxCell>
        <mxCell id="b-HjsPW8PfskxGSnB1fF-69" value="word 2" style="rounded=1;whiteSpace=wrap;html=1;fillColor=#d5e8d4;strokeColor=#82b366;" vertex="1" parent="1">
          <mxGeometry x="204" y="410" width="60" height="30" as="geometry" />
        </mxCell>
        <mxCell id="b-HjsPW8PfskxGSnB1fF-70" value="" style="endArrow=classic;html=1;rounded=0;exitX=0.5;exitY=0;exitDx=0;exitDy=0;entryX=0.5;entryY=1;entryDx=0;entryDy=0;" edge="1" parent="1" source="b-HjsPW8PfskxGSnB1fF-69" target="b-HjsPW8PfskxGSnB1fF-65">
          <mxGeometry width="50" height="50" relative="1" as="geometry">
            <mxPoint x="40" y="380" as="sourcePoint" />
            <mxPoint x="90" y="330" as="targetPoint" />
          </mxGeometry>
        </mxCell>
        <mxCell id="b-HjsPW8PfskxGSnB1fF-71" value="" style="endArrow=classic;html=1;rounded=0;exitX=0.5;exitY=0;exitDx=0;exitDy=0;entryX=0.5;entryY=1;entryDx=0;entryDy=0;" edge="1" parent="1" source="b-HjsPW8PfskxGSnB1fF-65" target="b-HjsPW8PfskxGSnB1fF-66">
          <mxGeometry width="50" height="50" relative="1" as="geometry">
            <mxPoint x="40" y="380" as="sourcePoint" />
            <mxPoint x="90" y="330" as="targetPoint" />
          </mxGeometry>
        </mxCell>
        <mxCell id="b-HjsPW8PfskxGSnB1fF-72" value="" style="endArrow=classic;html=1;rounded=0;exitX=0.5;exitY=0;exitDx=0;exitDy=0;entryX=0.5;entryY=1;entryDx=0;entryDy=0;" edge="1" parent="1" source="b-HjsPW8PfskxGSnB1fF-66" target="b-HjsPW8PfskxGSnB1fF-67">
          <mxGeometry width="50" height="50" relative="1" as="geometry">
            <mxPoint x="40" y="380" as="sourcePoint" />
            <mxPoint x="90" y="330" as="targetPoint" />
          </mxGeometry>
        </mxCell>
        <mxCell id="b-HjsPW8PfskxGSnB1fF-73" value="" style="endArrow=classic;html=1;rounded=0;exitX=0.5;exitY=0;exitDx=0;exitDy=0;entryX=0.5;entryY=1;entryDx=0;entryDy=0;" edge="1" parent="1" source="b-HjsPW8PfskxGSnB1fF-67" target="b-HjsPW8PfskxGSnB1fF-68">
          <mxGeometry width="50" height="50" relative="1" as="geometry">
            <mxPoint x="40" y="380" as="sourcePoint" />
            <mxPoint x="90" y="330" as="targetPoint" />
          </mxGeometry>
        </mxCell>
        <mxCell id="b-HjsPW8PfskxGSnB1fF-74" value="one - hot vector" style="rounded=1;whiteSpace=wrap;html=1;fillColor=#d5e8d4;strokeColor=#82b366;" vertex="1" parent="1">
          <mxGeometry x="400" y="360" width="127" height="30" as="geometry" />
        </mxCell>
        <mxCell id="b-HjsPW8PfskxGSnB1fF-75" value="embedding layer" style="rounded=1;whiteSpace=wrap;html=1;fillColor=#fff2cc;strokeColor=#d6b656;" vertex="1" parent="1">
          <mxGeometry x="400" y="320" width="130" height="30" as="geometry" />
        </mxCell>
        <mxCell id="b-HjsPW8PfskxGSnB1fF-76" value="RNN layer 1" style="rounded=1;whiteSpace=wrap;html=1;fillColor=#dae8fc;strokeColor=#6c8ebf;" vertex="1" parent="1">
          <mxGeometry x="400" y="280" width="130" height="30" as="geometry" />
        </mxCell>
        <mxCell id="b-HjsPW8PfskxGSnB1fF-77" value="RNN layer 2&lt;span style=&quot;color: rgba(0 , 0 , 0 , 0) ; font-family: monospace ; font-size: 0px&quot;&gt;%3CmxGraphModel%3E%3Croot%3E%3CmxCell%20id%3D%220%22%2F%3E%3CmxCell%20id%3D%221%22%20parent%3D%220%22%2F%3E%3CmxCell%20id%3D%222%22%20value%3D%22one%20-%20hot%20vector%22%20style%3D%22rounded%3D1%3BwhiteSpace%3Dwrap%3Bhtml%3D1%3B%22%20vertex%3D%221%22%20parent%3D%221%22%3E%3CmxGeometry%20x%3D%2210%22%20y%3D%22330%22%20width%3D%22300%22%20height%3D%2230%22%20as%3D%22geometry%22%2F%3E%3C%2FmxCell%3E%3C%2Froot%3E%3C%2FmxGraphModel%3E&lt;/span&gt;" style="rounded=1;whiteSpace=wrap;html=1;fillColor=#dae8fc;strokeColor=#6c8ebf;" vertex="1" parent="1">
          <mxGeometry x="400" y="240" width="130" height="30" as="geometry" />
        </mxCell>
        <mxCell id="b-HjsPW8PfskxGSnB1fF-78" value="word n-1" style="rounded=1;whiteSpace=wrap;html=1;fillColor=#d5e8d4;strokeColor=#82b366;" vertex="1" parent="1">
          <mxGeometry x="434" y="410" width="60" height="30" as="geometry" />
        </mxCell>
        <mxCell id="b-HjsPW8PfskxGSnB1fF-79" value="" style="endArrow=classic;html=1;rounded=0;exitX=0.5;exitY=0;exitDx=0;exitDy=0;entryX=0.5;entryY=1;entryDx=0;entryDy=0;" edge="1" parent="1" source="b-HjsPW8PfskxGSnB1fF-78" target="b-HjsPW8PfskxGSnB1fF-74">
          <mxGeometry width="50" height="50" relative="1" as="geometry">
            <mxPoint x="270" y="380" as="sourcePoint" />
            <mxPoint x="320" y="330" as="targetPoint" />
          </mxGeometry>
        </mxCell>
        <mxCell id="b-HjsPW8PfskxGSnB1fF-80" value="" style="endArrow=classic;html=1;rounded=0;exitX=0.5;exitY=0;exitDx=0;exitDy=0;entryX=0.5;entryY=1;entryDx=0;entryDy=0;" edge="1" parent="1" source="b-HjsPW8PfskxGSnB1fF-74" target="b-HjsPW8PfskxGSnB1fF-75">
          <mxGeometry width="50" height="50" relative="1" as="geometry">
            <mxPoint x="270" y="380" as="sourcePoint" />
            <mxPoint x="320" y="330" as="targetPoint" />
          </mxGeometry>
        </mxCell>
        <mxCell id="b-HjsPW8PfskxGSnB1fF-81" value="" style="endArrow=classic;html=1;rounded=0;exitX=0.5;exitY=0;exitDx=0;exitDy=0;entryX=0.5;entryY=1;entryDx=0;entryDy=0;" edge="1" parent="1" source="b-HjsPW8PfskxGSnB1fF-75" target="b-HjsPW8PfskxGSnB1fF-76">
          <mxGeometry width="50" height="50" relative="1" as="geometry">
            <mxPoint x="270" y="380" as="sourcePoint" />
            <mxPoint x="320" y="330" as="targetPoint" />
          </mxGeometry>
        </mxCell>
        <mxCell id="b-HjsPW8PfskxGSnB1fF-82" value="" style="endArrow=classic;html=1;rounded=0;exitX=0.5;exitY=0;exitDx=0;exitDy=0;entryX=0.5;entryY=1;entryDx=0;entryDy=0;" edge="1" parent="1" source="b-HjsPW8PfskxGSnB1fF-76" target="b-HjsPW8PfskxGSnB1fF-77">
          <mxGeometry width="50" height="50" relative="1" as="geometry">
            <mxPoint x="270" y="380" as="sourcePoint" />
            <mxPoint x="320" y="330" as="targetPoint" />
          </mxGeometry>
        </mxCell>
        <mxCell id="b-HjsPW8PfskxGSnB1fF-83" value="" style="endArrow=classic;html=1;rounded=0;exitX=1;exitY=0.75;exitDx=0;exitDy=0;entryX=0;entryY=0.75;entryDx=0;entryDy=0;" edge="1" parent="1">
          <mxGeometry width="50" height="50" relative="1" as="geometry">
            <mxPoint x="150" y="294.5" as="sourcePoint" />
            <mxPoint x="170" y="294.5" as="targetPoint" />
          </mxGeometry>
        </mxCell>
        <mxCell id="b-HjsPW8PfskxGSnB1fF-84" value="" style="endArrow=classic;html=1;rounded=0;exitX=1;exitY=0.5;exitDx=0;exitDy=0;entryX=0;entryY=0.5;entryDx=0;entryDy=0;" edge="1" parent="1" source="b-HjsPW8PfskxGSnB1fF-45" target="b-HjsPW8PfskxGSnB1fF-68">
          <mxGeometry width="50" height="50" relative="1" as="geometry">
            <mxPoint x="240" y="300" as="sourcePoint" />
            <mxPoint x="290" y="250" as="targetPoint" />
          </mxGeometry>
        </mxCell>
        <mxCell id="b-HjsPW8PfskxGSnB1fF-85" value="" style="endArrow=classic;html=1;rounded=0;exitX=1;exitY=0.5;exitDx=0;exitDy=0;entryX=0;entryY=0.5;entryDx=0;entryDy=0;" edge="1" parent="1" source="b-HjsPW8PfskxGSnB1fF-76" target="b-HjsPW8PfskxGSnB1fF-56">
          <mxGeometry width="50" height="50" relative="1" as="geometry">
            <mxPoint x="240" y="300" as="sourcePoint" />
            <mxPoint x="290" y="250" as="targetPoint" />
          </mxGeometry>
        </mxCell>
        <mxCell id="b-HjsPW8PfskxGSnB1fF-86" value="" style="endArrow=classic;html=1;rounded=0;exitX=1;exitY=0.5;exitDx=0;exitDy=0;entryX=0;entryY=0.5;entryDx=0;entryDy=0;" edge="1" parent="1" source="b-HjsPW8PfskxGSnB1fF-77" target="b-HjsPW8PfskxGSnB1fF-57">
          <mxGeometry width="50" height="50" relative="1" as="geometry">
            <mxPoint x="240" y="300" as="sourcePoint" />
            <mxPoint x="290" y="250" as="targetPoint" />
          </mxGeometry>
        </mxCell>
        <mxCell id="b-HjsPW8PfskxGSnB1fF-87" value="" style="endArrow=classic;html=1;rounded=0;exitX=1;exitY=0.5;exitDx=0;exitDy=0;" edge="1" parent="1" source="b-HjsPW8PfskxGSnB1fF-67">
          <mxGeometry width="50" height="50" relative="1" as="geometry">
            <mxPoint x="240" y="300" as="sourcePoint" />
            <mxPoint x="330" y="295" as="targetPoint" />
          </mxGeometry>
        </mxCell>
        <mxCell id="b-HjsPW8PfskxGSnB1fF-88" value="" style="endArrow=classic;html=1;rounded=0;exitX=1;exitY=0.5;exitDx=0;exitDy=0;" edge="1" parent="1" source="b-HjsPW8PfskxGSnB1fF-68">
          <mxGeometry width="50" height="50" relative="1" as="geometry">
            <mxPoint x="240" y="300" as="sourcePoint" />
            <mxPoint x="330" y="255" as="targetPoint" />
          </mxGeometry>
        </mxCell>
        <mxCell id="b-HjsPW8PfskxGSnB1fF-89" value="" style="endArrow=classic;html=1;rounded=0;entryX=0;entryY=0.5;entryDx=0;entryDy=0;" edge="1" parent="1" target="b-HjsPW8PfskxGSnB1fF-77">
          <mxGeometry width="50" height="50" relative="1" as="geometry">
            <mxPoint x="360" y="255" as="sourcePoint" />
            <mxPoint x="290" y="250" as="targetPoint" />
          </mxGeometry>
        </mxCell>
        <mxCell id="b-HjsPW8PfskxGSnB1fF-90" value="" style="endArrow=classic;html=1;rounded=0;entryX=0;entryY=0.5;entryDx=0;entryDy=0;" edge="1" parent="1" target="b-HjsPW8PfskxGSnB1fF-76">
          <mxGeometry width="50" height="50" relative="1" as="geometry">
            <mxPoint x="360" y="295" as="sourcePoint" />
            <mxPoint x="290" y="250" as="targetPoint" />
          </mxGeometry>
        </mxCell>
        <mxCell id="b-HjsPW8PfskxGSnB1fF-92" style="shape=partialRectangle;html=1;whiteSpace=wrap;connectable=0;fillColor=#bac8d3;top=0;left=0;bottom=0;right=0;overflow=hidden;strokeColor=#23445D;gradientColor=none;" vertex="1" parent="1">
          <mxGeometry x="488" y="110" width="39" height="25" as="geometry">
            <mxRectangle width="39" height="25" as="alternateBounds" />
          </mxGeometry>
        </mxCell>
        <mxCell id="b-HjsPW8PfskxGSnB1fF-93" style="shape=partialRectangle;html=1;whiteSpace=wrap;connectable=0;fillColor=#23445D;top=0;left=0;bottom=0;right=0;overflow=hidden;strokeColor=#23445d;" vertex="1" parent="1">
          <mxGeometry x="488" y="135" width="39" height="25" as="geometry">
            <mxRectangle width="39" height="25" as="alternateBounds" />
          </mxGeometry>
        </mxCell>
        <mxCell id="b-HjsPW8PfskxGSnB1fF-94" style="shape=partialRectangle;html=1;whiteSpace=wrap;connectable=0;fillColor=#bac8d3;top=0;left=0;bottom=0;right=0;overflow=hidden;strokeColor=#23445d;" vertex="1" parent="1">
          <mxGeometry x="488" y="160" width="39" height="25" as="geometry">
            <mxRectangle width="39" height="25" as="alternateBounds" />
          </mxGeometry>
        </mxCell>
        <mxCell id="b-HjsPW8PfskxGSnB1fF-95" style="shape=partialRectangle;html=1;whiteSpace=wrap;connectable=0;fillColor=#bac8d3;top=0;left=0;bottom=0;right=0;overflow=hidden;strokeColor=#23445d;" vertex="1" parent="1">
          <mxGeometry x="488" y="185" width="39" height="19" as="geometry">
            <mxRectangle width="39" height="19" as="alternateBounds" />
          </mxGeometry>
        </mxCell>
        <mxCell id="b-HjsPW8PfskxGSnB1fF-96" value="" style="endArrow=classic;html=1;rounded=0;exitX=0;exitY=0.5;exitDx=0;exitDy=0;" edge="1" parent="1">
          <mxGeometry width="50" height="50" relative="1" as="geometry">
            <mxPoint x="488.5" y="148.36" as="sourcePoint" />
            <mxPoint x="445.5" y="148.36" as="targetPoint" />
            <Array as="points">
              <mxPoint x="458.5" y="148.36" />
            </Array>
          </mxGeometry>
        </mxCell>
        <mxCell id="b-HjsPW8PfskxGSnB1fF-97" value="&lt;u&gt;POSITIVE&lt;/u&gt;" style="text;html=1;strokeColor=#36393d;fillColor=#cdeb8b;align=center;verticalAlign=middle;whiteSpace=wrap;rounded=0;" vertex="1" parent="1">
          <mxGeometry x="331.5" y="127.5" width="90" height="40" as="geometry" />
        </mxCell>
        <mxCell id="b-HjsPW8PfskxGSnB1fF-98" value="" style="endArrow=classic;html=1;rounded=0;exitX=0.5;exitY=0;exitDx=0;exitDy=0;" edge="1" parent="1" source="b-HjsPW8PfskxGSnB1fF-58">
          <mxGeometry width="50" height="50" relative="1" as="geometry">
            <mxPoint x="640" y="160" as="sourcePoint" />
            <mxPoint x="530" y="150" as="targetPoint" />
            <Array as="points">
              <mxPoint x="635" y="150" />
            </Array>
          </mxGeometry>
        </mxCell>
        <mxCell id="b-HjsPW8PfskxGSnB1fF-99" value="&lt;b&gt;...&lt;/b&gt;" style="rounded=0;whiteSpace=wrap;html=1;strokeColor=none;" vertex="1" parent="1">
          <mxGeometry x="300" y="330" width="96" height="30" as="geometry" />
        </mxCell>
      </root>
    </mxGraphModel>
  </diagram>
</mxfile>
